<svg xmlns="http://www.w3.org/2000/svg" xmlns:xlink="http://www.w3.org/1999/xlink" viewBox="0 0 70 58">
  <defs>
    <style>
      .cls-2{fill:none}.cls-15,.cls-3{fill:#fff}.cls-15{fill-rule:evenodd}.cls-10{fill:#5ac5eb}.cls-11{fill:#fda8bf}.cls-13{fill:#52d493}.cls-14{fill:#ee9bc7}
    </style>
    <clipPath id="clip-path">
      <path d="M32 52.5a6.5 6.5 0 0 1 .6 3 8.5 8.5 0 0 1-2.2.3 14 14 0 0 1-5.9-.2c-3.8-.8-5.6-5-5.6-5a.9.9 0 0 0-.3 0 24.8 24.8 0 0 1-5.7.4c-2 0-9.5-3-12-6 0 0 3.9-1 3.9-1.7S.5 41.1.5 41.1s-.7-3.6 4-7.2a28.3 28.3 0 0 1 8-4.7c-2.4-.4-9.2-3-11.5-6 0 0 3.8-.9 3.8-1.7S.5 19.3.5 19.3s-.7-3.6 4-7.2 8-5.3 12-5.5l5.1-.2s3.4-4.6 5.2-4.6c.9 0 13.9 2.8 15 4.6a4.7 4.7 0 0 0 2.3 2.1c.6.5.2.1 2.8.7 6.6 1.5 5.7 2 10.5 3 2 .3 11-4.1 11.9-3.7.4.2.7 4-.9 6.5s1.3 4.6 0 7.7 1.4 5.4.9 6.5S59 25.7 57.4 26c-1.5.3-5.7 2.3-14 3.9a8.2 8.2 0 0 1 .7.4c.6.4.2 0 2.8.7 6.6 1.4 5.7 2 10.5 2.9 2 .4 11-4 11.9-3.6.4.2.7 4-.9 6.5s1.3 4.5 0 7.7 1.4 5.4.9 6.5-10.2-3.5-11.9-3.2-6.8 2.8-17.2 4.4a42 42 0 0 1-8.2.3z" clip-rule="evenodd" fill="none"/>
    </clipPath>
    <clipPath id="clip-path-2">
      <path class="cls-2" d="M.3.2h69.5v57.7H.3z"/>
    </clipPath>
    <linearGradient id="New_Gradient_Swatch_13" x1="34.1" y1="1.8" x2="34.1" y2="21.5" gradientUnits="userSpaceOnUse">
      <stop offset="0" stop-color="#10fecb"/>
      <stop offset="1" stop-color="#5ac5eb"/>
    </linearGradient>
    <linearGradient id="linear-gradient" x1="33.6" y1="20.3" x2="38.8" y2="34" gradientUnits="userSpaceOnUse">
      <stop offset="0" stop-color="#ffa9be"/>
      <stop offset="1" stop-color="#9050ff"/>
    </linearGradient>
    <linearGradient id="New_Gradient_Swatch_10" x1="35.2" y1="26.9" x2="35.2" y2="43.2" gradientUnits="userSpaceOnUse">
      <stop offset="0" stop-color="#86b96e"/>
      <stop offset="1" stop-color="#4ed696"/>
    </linearGradient>
    <linearGradient id="New_Gradient_Swatch_7" x1="31.8" y1="41.7" x2="38.8" y2="57.1" xlink:href="#linear-gradient"/>
    <symbol id="New_Symbol" data-name="New Symbol" viewBox="0 0 1.1 1.1">
      <circle class="cls-3" cx=".5" cy=".5" r=".5"/>
    </symbol>
  </defs>
  <g clip-path="url(#clip-path)">
    <g style="isolation:isolate" clip-path="url(#clip-path-2)">
      <path fill="url(#New_Gradient_Swatch_13)" d="M-1.4 1.8h70.9v19.8H-1.4z"/>
      <path fill="url(#linear-gradient)" d="M61.5 31l8-1.1.3-2.6v-5.8l-.7-2H42.7v2H.4v5.8l5.8 1.9L27.8 31h4.7"/>
      <path fill="url(#New_Gradient_Swatch_10)" fill-rule="evenodd" d="M27.8 27.3h24.6v2.6H70v11.5H33.4v2H.4V29.9l10.3-.7h17v-2z"/>
      <path class="cls-10" d="M27.2 12a835.4 835.4 0 0 1 7 .4 82 82 0 0 1 9 1.3A60.7 60.7 0 0 1 57 18.4l1.9.8a.7.7 0 0 0 1-.4.9.9 0 0 0-.5-1.1l-1.9-.9a61.9 61.9 0 0 0-13.9-4.7 83.2 83.2 0 0 0-9.1-1.4l-2.5-.1h-1.1a840.8 840.8 0 0 0-4.6-.3h-.4a.8.8 0 0 0-.8 1.2 10 10 0 0 1 .3.5l.5 1.4a16.4 16.4 0 0 1 .6 2.3l.1.7a12.6 12.6 0 0 1-.4 3.5 42.1 42.1 0 0 1-1.2 4.4l-.1.2a.9.9 0 0 0 .4 1.1.7.7 0 0 0 1-.5 29.7 29.7 0 0 0 .9-3l.4-1.8a13.8 13.8 0 0 0 .5-4l-.1-1a18.2 18.2 0 0 0-.7-2.5l-.3-.8z"/>
      <path class="cls-11" d="M27.3 21.5l.2-1.1a14.2 14.2 0 0 0 .5-4.1l-.1-1a18.6 18.6 0 0 0-.7-2.5l-.3-.9h.3a826.1 826.1 0 0 1 7 .5 81 81 0 0 1 9 1.3A60.1 60.1 0 0 1 57 18.4l1.9.9a.7.7 0 0 0 1-.5.9.9 0 0 0-.5-1l-1.9-1A61.3 61.3 0 0 0 43.5 12a82.2 82.2 0 0 0-9.1-1.3 224.4 224.4 0 0 0-8.2-.5h-.4a.8.8 0 0 0-.8 1.2 10.6 10.6 0 0 1 .3.6l.5 1.4a16.8 16.8 0 0 1 .6 2.3l.1.8a13 13 0 0 1-.4 3.5l-.4 1.5z"/>
      <path class="cls-10" d="M21.2 12.3a6.3 6.3 0 0 1 .3.4l.6 1.3a11.7 11.7 0 0 1 .8 2.2 5.6 5.6 0 0 1 0 1.2 9.7 9.7 0 0 1-.5 3 13.3 13.3 0 0 1-.6 1.5.8.8 0 0 0 .3 1 .6.6 0 0 0 .9-.3 9 9 0 0 0 .7-1.6 11.3 11.3 0 0 0 .6-3.6 7.2 7.2 0 0 0-.1-1.5 13.2 13.2 0 0 0-.9-2.5 18.8 18.8 0 0 0-1-2 .6.6 0 0 0-.9-.2.8.8 0 0 0-.2 1z"/>
      <path class="cls-11" d="M23.5 21.5l.2-.4a11.5 11.5 0 0 0 .6-3.7 7.4 7.4 0 0 0-.1-1.5 13.5 13.5 0 0 0-.9-2.5 19.1 19.1 0 0 0-1-2 .6.6 0 0 0-.9-.2.8.8 0 0 0-.2 1 6.7 6.7 0 0 1 .3.5l.6 1.3a12 12 0 0 1 .8 2.3 5.8 5.8 0 0 1 0 1.1 10 10 0 0 1-.5 3.1l-.4 1z"/>
      <path fill="url(#New_Gradient_Swatch_7)" d="M69.6 56.1H.4V43.4h32.9v-2h36.3V56z"/>
      <path class="cls-13" d="M27.2 34a818.4 818.4 0 0 1 7 .4 82 82 0 0 1 9 1.3A60.7 60.7 0 0 1 57 40.4l1.9.8a.7.7 0 0 0 1-.4.9.9 0 0 0-.5-1l-1.9-1a61.9 61.9 0 0 0-13.9-4.7 83.2 83.2 0 0 0-9.1-1.3l-2.5-.2h-1.1a858.7 858.7 0 0 0-4.6-.3h-.4a.8.8 0 0 0-.8 1.2 10 10 0 0 1 .3.5l.5 1.4a16.4 16.4 0 0 1 .6 2.3l.1.8a12.6 12.6 0 0 1-.4 3.4 42.2 42.2 0 0 1-1.2 4.5l-.1.1a.9.9 0 0 0 .4 1.2.7.7 0 0 0 1-.5V47a29.7 29.7 0 0 0 .9-3l.4-1.8a13.8 13.8 0 0 0 .5-4l-.1-1a18.2 18.2 0 0 0-.7-2.4l-.3-.9z"/>
      <path class="cls-14" d="M27.3 43.4l.2-1.1a13.8 13.8 0 0 0 .5-4l-.1-1a18.2 18.2 0 0 0-.7-2.5l-.3-.8h.3a818.4 818.4 0 0 1 7 .4 82 82 0 0 1 9 1.3A60.7 60.7 0 0 1 57 40.3l1.9 1a.7.7 0 0 0 1-.6.9.9 0 0 0-.5-1l-1.9-.9a61.9 61.9 0 0 0-13.9-4.7 83.2 83.2 0 0 0-9.1-1.4l-2.5-.1h-1.1a858.7 858.7 0 0 0-4.6-.3h-.4a.8.8 0 0 0-.8 1.2 10 10 0 0 1 .3.5l.5 1.4a16.4 16.4 0 0 1 .6 2.3l.1.7a12.6 12.6 0 0 1-.4 3.5l-.4 1.5z"/>
      <path class="cls-13" d="M21.2 34.3a6.3 6.3 0 0 1 .3.5l.6 1.2a11.7 11.7 0 0 1 .8 2.3 5.6 5.6 0 0 1 0 1.1 9.7 9.7 0 0 1-.5 3 13.3 13.3 0 0 1-.6 1.5.8.8 0 0 0 .3 1 .6.6 0 0 0 .9-.3 9 9 0 0 0 .7-1.6 11.3 11.3 0 0 0 .6-3.6 7.2 7.2 0 0 0-.1-1.5 13.2 13.2 0 0 0-.9-2.5 18.8 18.8 0 0 0-1-2 .6.6 0 0 0-.9-.1.8.8 0 0 0-.2 1z"/>
      <path class="cls-14" d="M23.5 43.4l.2-.4a11.3 11.3 0 0 0 .6-3.6 7.2 7.2 0 0 0-.1-1.5 13.2 13.2 0 0 0-.9-2.5 18.8 18.8 0 0 0-1-2 .6.6 0 0 0-.9-.2.8.8 0 0 0-.2 1 6.3 6.3 0 0 1 .3.5l.6 1.3a11.7 11.7 0 0 1 .8 2.2 5.6 5.6 0 0 1 0 1.2 9.7 9.7 0 0 1-.5 3l-.4 1z"/>
    </g>
  </g>
  <path class="cls-2" d="M.2 0h70v58H.2z"/>
  <circle cx="12.2" cy="16" r="3"/>
  <path class="cls-15" d="M9.2 15.8a3.2 3.2 0 1 1 3.3 3.3 3 3 0 0 1-3.2-2.8 2.4 2.4 0 0 0 2.4 2 2.6 2.6 0 1 0-2.5-2.5z"/>
  <circle class="cls-3" cx="10.5" cy="16.7" r=".8"/>
  <circle cx="12.2" cy="37.9" r="3"/>
  <path class="cls-15" d="M9.2 37.7a3.2 3.2 0 1 1 3.3 3.3 3 3 0 0 1-3.2-2.8 2.4 2.4 0 0 0 2.4 2 2.6 2.6 0 1 0-2.5-2.5z"/>
  <circle class="cls-3" cx="10.5" cy="38.6" r=".8"/>
  <use width="1.1" height="1.1" transform="translate(26.6 18.1) scale(.8573)" xlink:href="#New_Symbol"/>
  <use width="1.1" height="1.1" transform="translate(27 15.7) scale(.8565)" xlink:href="#New_Symbol"/>
  <use width="1.1" height="1.1" transform="matrix(.852 0 0 .852 29 16.8)" xlink:href="#New_Symbol"/>
  <use width="1.1" height="1.1" transform="translate(34.4 19.1) scale(.8415)" xlink:href="#New_Symbol"/>
  <use width="1.1" height="1.1" transform="translate(38 13.3) scale(.8341)" xlink:href="#New_Symbol"/>
  <use width="1.1" height="1.1" transform="translate(40.1 7.7) scale(.8325)" xlink:href="#New_Symbol"/>
  <use width="1.1" height="1.1" transform="translate(37 8) scale(.8381)" xlink:href="#New_Symbol"/>
  <use width="1.1" height="1.1" transform="translate(37.6 16.4) scale(.8346)" xlink:href="#New_Symbol"/>
  <use width="1.1" height="1.1" transform="translate(43.5 17.8) scale(.8234)" xlink:href="#New_Symbol"/>
  <use width="1.1" height="1.1" transform="translate(30.1 22) scale(.8518)" xlink:href="#New_Symbol"/>
  <use width="1.1" height="1.1" transform="translate(25.6 52.2) scale(.8921)" xlink:href="#New_Symbol"/>
  <use width="1.1" height="1.1" transform="matrix(.884 0 0 .884 35 54.4)" xlink:href="#New_Symbol"/>
  <use width="1.1" height="1.1" transform="translate(27.8 20.6) scale(.8538)" xlink:href="#New_Symbol"/>
  <use width="1.1" height="1.1" transform="matrix(.869 0 0 .869 20.7 18.8)" xlink:href="#New_Symbol"/>
  <use width="1.1" height="1.1" transform="translate(35 39.3) scale(.8597)" xlink:href="#New_Symbol"/>
  <use width="1.1" height="1.1" transform="translate(43 42) scale(.8542)" xlink:href="#New_Symbol"/>
  <use width="1.1" height="1.1" transform="translate(32.1 28.6) scale(.8518)" xlink:href="#New_Symbol"/>
  <use width="1.1" height="1.1" transform="translate(35 44.8) scale(.8681)" xlink:href="#New_Symbol"/>
  <use width="1.1" height="1.1" transform="translate(41.8 35.1) scale(.8443)" xlink:href="#New_Symbol"/>
  <use width="1.1" height="1.1" transform="translate(42.9 28) scale(.8328)" xlink:href="#New_Symbol"/>
  <use width="1.1" height="1.1" transform="translate(41 29.1) scale(.8372)" xlink:href="#New_Symbol"/>
  <use width="1.1" height="1.1" transform="translate(58 30.4) scale(.8224)" xlink:href="#New_Symbol"/>
  <use width="1.1" height="1.1" transform="translate(62.6 34.7) scale(.8317)" xlink:href="#New_Symbol"/>
  <use width="1.1" height="1.1" transform="translate(64.8 32.3) scale(.8282)" xlink:href="#New_Symbol"/>
  <use width="1.1" height="1.1" transform="translate(65.1 18) scale(.8064)" xlink:href="#New_Symbol"/>
  <use width="1.1" height="1.1" transform="translate(66.3 14.9) scale(.8077)" xlink:href="#New_Symbol"/>
  <use width="1.1" height="1.1" transform="translate(64.6 12.8) scale(.8054)" xlink:href="#New_Symbol"/>
  <use width="1.1" height="1.1" transform="translate(59.8 13.5) scale(.7973)" xlink:href="#New_Symbol"/>
  <use width="1.1" height="1.1" transform="translate(53.9 17.8) scale(.8039)" xlink:href="#New_Symbol"/>
  <use width="1.1" height="1.1" transform="matrix(.812 0 0 .812 50.5 20.3)" xlink:href="#New_Symbol"/>
  <use width="1.1" height="1.1" transform="translate(48.5 24.8) scale(.8204)" xlink:href="#New_Symbol"/>
  <use width="1.1" height="1.1" transform="translate(47.6 31.7) scale(.8318)" xlink:href="#New_Symbol"/>
  <use width="1.1" height="1.1" transform="translate(50 35.6) scale(.8363)" xlink:href="#New_Symbol"/>
  <use width="1.1" height="1.1" transform="translate(58.2 38.4) scale(.8383)" xlink:href="#New_Symbol"/>
  <use width="1.1" height="1.1" transform="translate(60 42.5) scale(.8466)" xlink:href="#New_Symbol"/>
  <use width="1.1" height="1.1" transform="translate(52.5 45.8) scale(.8545)" xlink:href="#New_Symbol"/>
  <use width="1.1" height="1.1" transform="translate(39.3 46.7) scale(.8661)" xlink:href="#New_Symbol"/>
  <use width="1.1" height="1.1" transform="matrix(.87 0 0 .87 31.5 43)" xlink:href="#New_Symbol"/>
  <use width="1.1" height="1.1" transform="translate(30 37.2) scale(.8645)" xlink:href="#New_Symbol"/>
  <use width="1.1" height="1.1" transform="translate(17.7 47.6) scale(.8975)" xlink:href="#New_Symbol"/>
  <use width="1.1" height="1.1" transform="translate(12.8 5) scale(.8432)" xlink:href="#New_Symbol"/>
</svg>
